<svg xmlns="http://www.w3.org/2000/svg" height="24" viewBox="0 96 960 960" width="24"><path d="M486.058 1017.61q-36.971 0-79.21-7.65-42.239-7.66-77.544-22.525 35.218-14.391 60.44-39.646 25.222-25.255 37.865-58.572 14 4.435 28.065 4.935 14.065.5 32.369.5 45.348 0 93.674-13.587 48.326-13.587 92.195-46.195-86.565-30.131-153.446-85.305-66.88-55.174-108.325-127.478-41.446-72.304-56.315-158.177-14.87-85.873 2-176.909-85.739 37.522-136.087 116.239-50.348 78.717-51.478 168.238-38.783 0-70.588 8.826-31.804 8.826-50.935 25.653-5.13-77.5 17.457-154.554 22.587-77.055 71.934-141.512 49.348-64.456 125.218-109.913 75.87-45.457 177.436-59.761 40.261-5.869 58.609 19.892t3.217 69.456q-34.696 96.826-28.674 181.913 6.022 85.087 45.609 151.978 39.586 66.892 110.021 112.283Q700 721.13 795.696 738.565q45.261 8 59.391 36.978 14.131 28.978-10.869 61.805-67.435 86.087-160.196 133.174-92.761 47.088-197.964 47.088ZM280 901.957H160q-52.261 0-89.109-36.401-36.848-36.401-36.848-89.346 0-52.739 37.08-89.453 37.079-36.714 88.621-36.714 40.607 0 71.562 22.783t44.955 57.217H280q36.696 0 61.326 24.513 24.631 24.513 24.631 61.609 0 35.096-24.631 60.444-24.63 25.348-61.326 25.348Zm142.087-310.566Z"/></svg>